<svg width="918" height="188" viewBox="0 0 918 188" fill="none" xmlns="http://www.w3.org/2000/svg">
<path d="M72.0508 142.932V108.615C72.0508 102.941 70.0684 97.7461 66.8555 93.5762C70.0684 89.4062 72.0508 84.2109 72.0508 78.5371V68.9668C72.0508 55.2949 60.9082 44.1523 47.168 44.1523H0V142.932H72.0508ZM52.5684 123.449H19.4141V103.352H47.373C50.2441 103.352 52.5684 105.744 52.5684 108.615V123.449ZM47.4414 83.6641H19.4141V63.5664H47.168C50.1758 63.5664 52.5684 66.0273 52.5684 68.9668V78.5371C52.5684 81.4082 50.2441 83.6641 47.4414 83.6641ZM165.703 143V142.863H179.443L143.076 44.4941H122.09L85.7227 142.863H106.572L132.549 72.5898L151.416 123.518H132.275L132.344 143H165.703ZM239.736 143.615C253.818 143.615 265.234 132.199 265.234 118.186V68.8984C265.234 54.8848 253.818 43.4688 239.736 43.4688H218.613C204.6 43.4688 193.184 54.8848 193.184 68.8984V118.186C193.184 132.199 204.6 143.615 218.613 143.615H239.736ZM239.736 124.133H218.613C215.264 124.133 212.598 121.467 212.598 118.186V68.8984C212.598 65.6172 215.264 62.8828 218.613 62.8828H239.736C243.086 62.8828 245.752 65.6172 245.752 68.8984V118.186C245.752 121.467 243.086 124.133 239.736 124.133ZM298.32 142.932V44.3574H278.906V142.932H298.32ZM350.957 142.932V44.3574H331.543V83.2539H306.592V102.736H331.543V142.932H350.957ZM384.111 142.727V44.3574H364.629V142.727H384.111ZM460.195 142.932V123.449H423.145C419.932 123.449 417.266 120.852 417.266 117.639V102.736H448.027V83.2539H417.266V69.582C417.266 66.3008 420 63.5664 423.281 63.5664H460.195V44.1523H423.281C409.268 44.1523 397.852 55.5684 397.852 69.582V117.639C397.852 131.584 409.199 142.932 423.145 142.932H460.195ZM561.504 142.932V44.3574H529.648L517.412 78.0586L505.107 44.3574H473.867V142.932H493.35V65.3438L507.021 102.941H527.803L542.09 63.7031V142.932H561.504ZM616.602 142.795C632.119 142.795 644.697 131.311 644.697 117.16V109.094C644.697 95.3535 632.598 84.2109 617.627 83.8008H603.271C598.691 83.8008 594.658 80.9297 594.658 77.7168V69.4453C594.658 66.3008 598.418 63.5664 602.861 63.5664H640.869V44.1523H602.861C587.617 44.1523 575.176 55.5 575.176 69.4453V77.7168C575.176 91.7305 587.822 103.215 603.271 103.215H616.807C621.318 103.215 625.215 105.949 625.215 109.094V117.16C625.215 120.51 621.318 123.381 616.602 123.381H578.457V142.795H616.602ZM704.99 143.615C719.072 143.615 730.488 132.199 730.488 118.186V68.8984C730.488 54.8848 719.072 43.4688 704.99 43.4688H683.867C669.854 43.4688 658.438 54.8848 658.438 68.8984V118.186C658.438 132.199 669.854 143.615 683.867 143.615H704.99ZM704.99 124.133H683.867C680.518 124.133 677.852 121.467 677.852 118.186V68.8984C677.852 65.6172 680.518 62.8828 683.867 62.8828H704.99C708.34 62.8828 711.006 65.6172 711.006 68.8984V118.186C711.006 121.467 708.34 124.133 704.99 124.133ZM763.506 142.727V125.295H744.16V142.727H763.506ZM857.227 143V142.863H870.967L834.6 44.4941H813.613L777.246 142.863H798.096L824.072 72.5898L842.939 123.518H823.799L823.867 143H857.227ZM904.189 142.727V44.3574H884.707V142.727H904.189Z" fill="#1344C9"/>
</svg>
