<?xml version="1.0" encoding="UTF-8"?>
<svg width="569px" height="569px" viewBox="0 0 569 569" version="1.1" xmlns="http://www.w3.org/2000/svg" xmlns:xlink="http://www.w3.org/1999/xlink">
    <!-- Generator: Sketch 57.1 (83088) - https://sketch.com -->
    <title>Group 14</title>
    <desc>Created with Sketch.</desc>
    <g id="Latest-Design" stroke="none" stroke-width="1" fill="none" fill-rule="evenodd">
        <g id="Group-14">
            <circle id="Oval" fill="#028C20" cx="284.5" cy="284.5" r="284.5"></circle>
            <g id="call" transform="translate(78.000000, 105.000000)" fill="#FFFFFF" fill-rule="nonzero">
                <path d="M317.490855,206.18105 C317.113118,211.077539 320.890494,215.597376 325.801084,215.974029 C330.711673,216.350682 335.244525,212.584152 335.622262,207.687662 C336,203.544479 336,199.401295 336,195.258112 C336,186.971745 335.244525,179.062032 334.111312,171.152318 C329.200722,141.020075 314.468954,113.901057 293.693384,93.1851398 C269.895912,69.4559987 238.16595,54.0132243 203.036349,51.376653 C199.258973,51 195.103859,51 191.326482,51 C187.171368,51 183.016254,51 178.86114,51.376653 C174.706026,51.7533061 170.550912,52.1299591 166.395798,52.8832652 C161.485208,53.6365712 158.08557,58.5330607 159.218783,63.0528971 C159.974258,67.9493865 164.884847,71.3392638 169.417699,70.2093047 C172.061862,69.8326517 174.328288,69.4559987 176.972452,69.0793456 C178.105665,69.0793456 179.238878,68.7026926 180.372091,68.7026926 C184.149467,68.3260396 187.926844,68.3260396 191.326482,68.3260396 C204.169562,68.3260396 216.257167,70.2093047 227.967034,73.599182 C248.364867,79.6256306 266.496273,90.5485686 281.228042,105.238037 C293.315646,117.290934 303.136825,131.980402 309.558365,147.79983 C315.22443,162.112645 318.624068,177.932072 318.624068,194.504806 C318.624068,195.634765 318.624068,197.141377 318.624068,198.271336 C317.868593,201.284561 317.490855,203.544479 317.490855,206.18105 Z" id="Path"></path>
                <path d="M330.630521,57.4335151 C294.774596,21.7721822 245.708594,0 191.35856,0 C185.697099,0 180.035637,0.375382451 174.374175,0.750764903 C168.712713,1.12614735 163.051252,1.87691226 157.38979,3.00305961 C152.48319,3.75382451 149.086312,8.63379638 150.218605,13.1383858 C150.973466,18.0183577 155.880067,21.3967997 160.409236,20.2706524 C163.051252,19.8952699 165.315836,19.5198875 167.957852,19.144505 C170.599867,18.7691226 173.241883,18.3937401 175.883898,18.3937401 C181.167929,18.0183577 186.074529,17.6429752 191.35856,17.6429752 C240.424563,17.6429752 284.961395,37.5382451 317.420443,69.4457535 C349.50206,101.353262 369.505891,145.648391 369.505891,194.823492 C369.505891,197.451169 369.505891,200.454229 369.505891,203.081906 C369.505891,205.334201 369.128461,207.586496 369.128461,210.214173 C368.75103,215.094145 372.525338,219.598734 377.431938,219.974116 C382.338538,220.349499 386.867708,216.595674 387.245138,211.715703 C387.622569,206.084966 388,200.454229 388,195.198875 C388,141.519184 366.109014,92.7194655 330.630521,57.4335151 Z" id="Path"></path>
                <path d="M373.998059,285.909469 L307.265749,250.196664 C285.021646,238.167087 284.267608,246.061497 260.892449,270.872499 C255.237168,276.887287 244.680644,292.676106 232.239027,289.668712 C206.224737,283.278 157.589324,245.309648 141.754539,228.017132 C134.214165,219.746798 101.790556,180.274749 101.413538,167.493324 C100.6595,147.945262 143.639632,138.171231 129.68994,100.954728 L99.905463,34.4161325 C72.0060791,-29.4909935 -6.0367922,72.7604081 0.372525725,120.50279 C16.9613486,238.167087 223.944616,428.384768 339.312339,365.605415 C364.94961,351.320293 399.635331,301.322365 373.998059,285.909469 Z" id="Path"></path>
            </g>
        </g>
    </g>
</svg>