<svg width="1195" height="310" viewBox="0 0 1195 310" fill="none" xmlns="http://www.w3.org/2000/svg">
<path d="M12.3323 32C12.3323 32 -16.1632 223.5 126.052 300C183.754 268.698 209.532 230.359 223.837 182.5C223.837 182.5 232.904 150.284 234.759 140C245.348 81.3089 236.765 32 236.765 32L126.052 10L12.3323 32Z" stroke="#1344C9" stroke-width="15"/>
<path d="M207.706 177.447C207.706 177.449 207.705 177.452 207.704 177.455C195.75 217.515 174.276 249.601 126.201 275.862C66.9547 243.704 43.1925 187.612 34.2622 139.375C29.786 115.198 29.0439 93.0265 29.4217 76.8983C29.6105 68.8355 30.0792 62.2866 30.5002 57.7566C30.7106 55.4918 30.9092 53.7319 31.0548 52.5402C31.1101 52.0876 31.1578 51.717 31.1956 51.4318L126.2 33.0191L218.692 51.4316C218.739 51.7308 218.8 52.1275 218.871 52.6175C219.05 53.844 219.297 55.6549 219.565 57.9843C220.102 62.6434 220.725 69.3757 221.071 77.6546C221.762 94.2155 221.34 116.949 216.891 141.65C216.118 145.945 213.828 154.877 211.717 162.78C210.665 166.722 209.661 170.393 208.92 173.078C208.549 174.421 208.245 175.517 208.033 176.278C208.001 176.391 207.972 176.496 207.945 176.594C207.88 176.826 207.827 177.014 207.788 177.155L207.724 177.384L207.707 177.443L207.706 177.447Z" fill="#4EBB4F" stroke="white" stroke-width="2"/>
<line x1="225.1" y1="31.0624" x2="89.265" y2="153.369" stroke="#1344C9" stroke-width="10"/>
<line x1="242.594" y1="62.497" x2="86.2099" y2="203.306" stroke="#1344C9" stroke-width="10"/>
<line x1="173.219" y1="175.195" x2="76.2132" y2="262.54" stroke="#1344C9" stroke-width="10"/>
<circle cx="89.3369" cy="151" r="12" fill="white" stroke="#1344C9" stroke-width="6"/>
<circle cx="89.3369" cy="201" r="12" fill="white" stroke="#1344C9" stroke-width="6"/>
<circle cx="172.337" cy="177" r="12" fill="white" stroke="#1344C9" stroke-width="6"/>
<path d="M349.051 208.932V174.615C349.051 168.941 347.068 163.746 343.855 159.576C347.068 155.406 349.051 150.211 349.051 144.537V134.967C349.051 121.295 337.908 110.152 324.168 110.152H277V208.932H349.051ZM329.568 189.449H296.414V169.352H324.373C327.244 169.352 329.568 171.744 329.568 174.615V189.449ZM324.441 149.664H296.414V129.566H324.168C327.176 129.566 329.568 132.027 329.568 134.967V144.537C329.568 147.408 327.244 149.664 324.441 149.664ZM442.703 209V208.863H456.443L420.076 110.494H399.09L362.723 208.863H383.572L409.549 138.59L428.416 189.518H409.275L409.344 209H442.703ZM516.736 209.615C530.818 209.615 542.234 198.199 542.234 184.186V134.898C542.234 120.885 530.818 109.469 516.736 109.469H495.613C481.6 109.469 470.184 120.885 470.184 134.898V184.186C470.184 198.199 481.6 209.615 495.613 209.615H516.736ZM516.736 190.133H495.613C492.264 190.133 489.598 187.467 489.598 184.186V134.898C489.598 131.617 492.264 128.883 495.613 128.883H516.736C520.086 128.883 522.752 131.617 522.752 134.898V184.186C522.752 187.467 520.086 190.133 516.736 190.133ZM575.32 208.932V110.357H555.906V208.932H575.32ZM627.957 208.932V110.357H608.543V149.254H583.592V168.736H608.543V208.932H627.957ZM661.111 208.727V110.357H641.629V208.727H661.111ZM737.195 208.932V189.449H700.145C696.932 189.449 694.266 186.852 694.266 183.639V168.736H725.027V149.254H694.266V135.582C694.266 132.301 697 129.566 700.281 129.566H737.195V110.152H700.281C686.268 110.152 674.852 121.568 674.852 135.582V183.639C674.852 197.584 686.199 208.932 700.145 208.932H737.195ZM838.504 208.932V110.357H806.648L794.412 144.059L782.107 110.357H750.867V208.932H770.35V131.344L784.021 168.941H804.803L819.09 129.703V208.932H838.504ZM893.602 208.795C909.119 208.795 921.697 197.311 921.697 183.16V175.094C921.697 161.354 909.598 150.211 894.627 149.801H880.271C875.691 149.801 871.658 146.93 871.658 143.717V135.445C871.658 132.301 875.418 129.566 879.861 129.566H917.869V110.152H879.861C864.617 110.152 852.176 121.5 852.176 135.445V143.717C852.176 157.73 864.822 169.215 880.271 169.215H893.807C898.318 169.215 902.215 171.949 902.215 175.094V183.16C902.215 186.51 898.318 189.381 893.602 189.381H855.457V208.795H893.602ZM981.99 209.615C996.072 209.615 1007.49 198.199 1007.49 184.186V134.898C1007.49 120.885 996.072 109.469 981.99 109.469H960.867C946.854 109.469 935.438 120.885 935.438 134.898V184.186C935.438 198.199 946.854 209.615 960.867 209.615H981.99ZM981.99 190.133H960.867C957.518 190.133 954.852 187.467 954.852 184.186V134.898C954.852 131.617 957.518 128.883 960.867 128.883H981.99C985.34 128.883 988.006 131.617 988.006 134.898V184.186C988.006 187.467 985.34 190.133 981.99 190.133ZM1040.51 208.727V191.295H1021.16V208.727H1040.51ZM1134.23 209V208.863H1147.97L1111.6 110.494H1090.61L1054.25 208.863H1075.1L1101.07 138.59L1119.94 189.518H1100.8L1100.87 209H1134.23ZM1181.19 208.727V110.357H1161.71V208.727H1181.19Z" fill="#1344C9"/>
</svg>
